<svg width="407" height="355" viewBox="0 0 407 355" fill="none" xmlns="http://www.w3.org/2000/svg">
<path d="M260.833 243.71L264.969 253.38L278.645 267.086L292.748 279.572L263.913 265.746L253.985 265.546L248.22 268.314L243.284 275.346L233.896 300.124L235.878 283.564L235.175 268.8L233.445 262.029L228.198 252.79L219.585 244.56L193.794 229.476L181.171 224.083L166.864 219.195L148.257 214.85L138.794 213.718L129.153 213.482L110.557 216.126L104.04 219.863L98.7128 228.4L97.2573 237.613L97.627 245.139L101.907 278.964L100.187 279.181L91.502 247.37L86.5388 235.766L80.3237 225.776L70.7412 216.795L60.9154 212.796L50.4111 210.339L23.6002 207.907L7.83074 207.572L7.25391 205.315L35.7016 199.968L49.3124 194.751L51.7799 191.235L52.9558 186.718L51.4757 179.624L20.9254 145.337L56.0481 169.726L72.1112 174.683L78.7043 173.849L85.4026 171.545L91.4515 166.411L102.567 146.074L97.9826 171.992L97.71 181.346L99.0812 187.58L105.58 195.204L113.471 200.03L132.586 208.387L166.287 216.938L180.88 221.79L194.937 227.001L210.568 230.848L221.175 229.506L225.217 224.626L225.243 217.924L222.039 208.718L213.154 186.834L234.989 216.691L243.098 223.237L250.881 227.203L277.559 212.469L265.148 229.475L261.755 237.186L260.833 243.71Z" fill="white"/>
<path d="M238.496 0H248.178L374.687 326.277C374.687 326.277 378.563 334.76 382.432 339.186C386.63 343.989 389.395 346.884 395.341 349.191C399.283 350.72 406.314 350.159 406.314 350.159L406.96 355H312.723V351.127C312.723 351.127 325.215 351.931 331.441 347.9C334.36 346.011 336.067 344.725 337.896 341.768C340.083 338.233 340.478 333.7 340.478 331.441C340.478 329.182 233.01 40.9864 233.01 40.9864C233.01 40.9864 132.964 324.986 133.287 327.245C133.61 329.505 135.869 337.895 135.869 337.895C135.869 337.895 140.262 344.092 144.26 346.609C147.032 348.355 148.84 348.987 152.005 349.836C156.16 350.952 162.978 350.805 162.978 350.805V354.677H88.4277V350.805C88.4277 350.805 100.382 348.902 106.823 344.995C110.576 342.719 112.419 340.986 115.537 337.895C118.459 334.999 120.997 333.055 122.314 329.827C123.631 326.6 238.496 0 238.496 0Z" fill="white"/>
</svg>
